<mxfile host="app.diagrams.net" agent="Mozilla/5.0 (Windows NT 10.0; Win64; x64) AppleWebKit/537.36 (KHTML, like Gecko) Chrome/131.0.0.0 Safari/537.36" version="25.0.0">
  <diagram name="Trang-1" id="zRStrCZms60aBh5zQ9CK">
    <mxGraphModel dx="1050" dy="1726" grid="1" gridSize="10" guides="1" tooltips="1" connect="1" arrows="1" fold="1" page="1" pageScale="1" pageWidth="827" pageHeight="1169" math="0" shadow="0">
      <root>
        <mxCell id="0" />
        <mxCell id="1" parent="0" />
        <mxCell id="b3J7wT-M6WEdxHhECkrl-1" value="User" style="shape=umlActor;verticalLabelPosition=bottom;verticalAlign=top;html=1;outlineConnect=0;" parent="1" vertex="1">
          <mxGeometry x="20" y="360" width="30" height="60" as="geometry" />
        </mxCell>
        <mxCell id="b3J7wT-M6WEdxHhECkrl-2" value="Login" style="ellipse;whiteSpace=wrap;html=1;" parent="1" vertex="1">
          <mxGeometry x="354" y="-100" width="120" height="80" as="geometry" />
        </mxCell>
        <mxCell id="b3J7wT-M6WEdxHhECkrl-3" value="Logout" style="ellipse;whiteSpace=wrap;html=1;" parent="1" vertex="1">
          <mxGeometry x="354" y="730" width="120" height="80" as="geometry" />
        </mxCell>
        <mxCell id="b3J7wT-M6WEdxHhECkrl-4" value="CV list management" style="ellipse;whiteSpace=wrap;html=1;" parent="1" vertex="1">
          <mxGeometry x="354" y="210" width="120" height="80" as="geometry" />
        </mxCell>
        <mxCell id="b3J7wT-M6WEdxHhECkrl-5" value="Viewing CV detail" style="ellipse;whiteSpace=wrap;html=1;" parent="1" vertex="1">
          <mxGeometry x="590" y="210" width="120" height="80" as="geometry" />
        </mxCell>
        <mxCell id="b3J7wT-M6WEdxHhECkrl-9" value="Statistic diagrams viewing" style="ellipse;whiteSpace=wrap;html=1;" parent="1" vertex="1">
          <mxGeometry x="354" y="405" width="120" height="80" as="geometry" />
        </mxCell>
        <mxCell id="b3J7wT-M6WEdxHhECkrl-10" value="CV from 3rd parties diagram" style="ellipse;whiteSpace=wrap;html=1;" parent="1" vertex="1">
          <mxGeometry x="594" y="340" width="120" height="80" as="geometry" />
        </mxCell>
        <mxCell id="b3J7wT-M6WEdxHhECkrl-11" value="CV status diagram" style="ellipse;whiteSpace=wrap;html=1;" parent="1" vertex="1">
          <mxGeometry x="594" y="480" width="120" height="80" as="geometry" />
        </mxCell>
        <mxCell id="b3J7wT-M6WEdxHhECkrl-12" value="" style="endArrow=none;html=1;rounded=0;entryX=0;entryY=0.5;entryDx=0;entryDy=0;exitX=1;exitY=0.3333333333333333;exitDx=0;exitDy=0;exitPerimeter=0;" parent="1" source="b3J7wT-M6WEdxHhECkrl-1" target="b3J7wT-M6WEdxHhECkrl-2" edge="1">
          <mxGeometry width="50" height="50" relative="1" as="geometry">
            <mxPoint x="80" y="380" as="sourcePoint" />
            <mxPoint x="350" y="130" as="targetPoint" />
          </mxGeometry>
        </mxCell>
        <mxCell id="b3J7wT-M6WEdxHhECkrl-13" value="" style="endArrow=none;html=1;rounded=0;entryX=0;entryY=0.5;entryDx=0;entryDy=0;" parent="1" source="b3J7wT-M6WEdxHhECkrl-1" target="b3J7wT-M6WEdxHhECkrl-4" edge="1">
          <mxGeometry width="50" height="50" relative="1" as="geometry">
            <mxPoint x="80" y="390" as="sourcePoint" />
            <mxPoint x="280" y="320" as="targetPoint" />
          </mxGeometry>
        </mxCell>
        <mxCell id="b3J7wT-M6WEdxHhECkrl-15" value="" style="endArrow=none;html=1;rounded=0;entryX=0;entryY=0.5;entryDx=0;entryDy=0;" parent="1" source="b3J7wT-M6WEdxHhECkrl-1" target="b3J7wT-M6WEdxHhECkrl-9" edge="1">
          <mxGeometry width="50" height="50" relative="1" as="geometry">
            <mxPoint x="140" y="550" as="sourcePoint" />
            <mxPoint x="190" y="500" as="targetPoint" />
          </mxGeometry>
        </mxCell>
        <mxCell id="b3J7wT-M6WEdxHhECkrl-16" value="" style="endArrow=none;html=1;rounded=0;entryX=0;entryY=0.5;entryDx=0;entryDy=0;" parent="1" source="b3J7wT-M6WEdxHhECkrl-1" target="b3J7wT-M6WEdxHhECkrl-3" edge="1">
          <mxGeometry width="50" height="50" relative="1" as="geometry">
            <mxPoint x="140" y="620" as="sourcePoint" />
            <mxPoint x="190" y="570" as="targetPoint" />
          </mxGeometry>
        </mxCell>
        <mxCell id="b3J7wT-M6WEdxHhECkrl-17" value="" style="endArrow=none;html=1;rounded=0;exitX=1;exitY=0.5;exitDx=0;exitDy=0;entryX=0;entryY=0.5;entryDx=0;entryDy=0;" parent="1" source="b3J7wT-M6WEdxHhECkrl-9" target="b3J7wT-M6WEdxHhECkrl-10" edge="1">
          <mxGeometry width="50" height="50" relative="1" as="geometry">
            <mxPoint x="514" y="450" as="sourcePoint" />
            <mxPoint x="564" y="400" as="targetPoint" />
          </mxGeometry>
        </mxCell>
        <mxCell id="b3J7wT-M6WEdxHhECkrl-18" value="" style="endArrow=none;html=1;rounded=0;exitX=1;exitY=0.5;exitDx=0;exitDy=0;entryX=0;entryY=0.5;entryDx=0;entryDy=0;" parent="1" source="b3J7wT-M6WEdxHhECkrl-9" target="b3J7wT-M6WEdxHhECkrl-11" edge="1">
          <mxGeometry width="50" height="50" relative="1" as="geometry">
            <mxPoint x="504" y="550" as="sourcePoint" />
            <mxPoint x="554" y="500" as="targetPoint" />
          </mxGeometry>
        </mxCell>
        <mxCell id="b3J7wT-M6WEdxHhECkrl-19" value="User and permission management" style="ellipse;whiteSpace=wrap;html=1;" parent="1" vertex="1">
          <mxGeometry x="354" y="570" width="120" height="80" as="geometry" />
        </mxCell>
        <mxCell id="b3J7wT-M6WEdxHhECkrl-20" value="" style="endArrow=none;html=1;rounded=0;entryX=0;entryY=0.5;entryDx=0;entryDy=0;" parent="1" source="b3J7wT-M6WEdxHhECkrl-1" target="b3J7wT-M6WEdxHhECkrl-19" edge="1">
          <mxGeometry width="50" height="50" relative="1" as="geometry">
            <mxPoint x="260" y="650" as="sourcePoint" />
            <mxPoint x="310" y="600" as="targetPoint" />
          </mxGeometry>
        </mxCell>
        <mxCell id="Fbtc1sslmkLo8ytjD4lA-1" value="Get CV from 3rd parties" style="ellipse;whiteSpace=wrap;html=1;" vertex="1" parent="1">
          <mxGeometry x="350" y="60" width="120" height="80" as="geometry" />
        </mxCell>
        <mxCell id="Fbtc1sslmkLo8ytjD4lA-2" value="" style="endArrow=none;html=1;rounded=0;entryX=0;entryY=0.5;entryDx=0;entryDy=0;" edge="1" parent="1" target="Fbtc1sslmkLo8ytjD4lA-1">
          <mxGeometry width="50" height="50" relative="1" as="geometry">
            <mxPoint x="50" y="380" as="sourcePoint" />
            <mxPoint x="280" y="200" as="targetPoint" />
          </mxGeometry>
        </mxCell>
        <mxCell id="Fbtc1sslmkLo8ytjD4lA-3" value="" style="endArrow=none;html=1;rounded=0;exitX=1;exitY=0.5;exitDx=0;exitDy=0;entryX=0;entryY=0.5;entryDx=0;entryDy=0;" edge="1" parent="1" source="b3J7wT-M6WEdxHhECkrl-4" target="b3J7wT-M6WEdxHhECkrl-5">
          <mxGeometry width="50" height="50" relative="1" as="geometry">
            <mxPoint x="520" y="340" as="sourcePoint" />
            <mxPoint x="570" y="290" as="targetPoint" />
          </mxGeometry>
        </mxCell>
      </root>
    </mxGraphModel>
  </diagram>
</mxfile>
